<?xml version="1.0" encoding="iso-8859-1"?>
<!-- Generator: Adobe Illustrator 19.0.0, SVG Export Plug-In . SVG Version: 6.00 Build 0)  -->
<svg version="1.1" id="Layer_1" xmlns="http://www.w3.org/2000/svg" xmlns:xlink="http://www.w3.org/1999/xlink" x="0px" y="0px"
	 viewBox="0 0 512 512" style="enable-background:new 0 0 512 512;" xml:space="preserve">
<path style="fill:#EF403C;" d="M109.206,46.422c40.208-30.77,91.972-46.075,146.446-46.075
	c141.193,0,255.653,114.459,255.653,255.653S396.846,511.653,255.653,511.653S0,397.193,0,256
	c0-58.423,19.598-112.27,52.577-155.323C52.577,100.677,65.366,79.971,109.206,46.422z"/>
<circle style="fill:#F2F2F2;" cx="255.653" cy="255.997" r="225.235"/>
<path style="fill:#285493;" d="M255.653,63.627c106.245,0,192.373,86.128,192.373,192.373s-86.128,192.373-192.373,192.373
	S63.28,362.244,63.28,256c0-51.016,19.858-97.394,52.267-131.825C115.547,124.174,166.258,63.627,255.653,63.627z"/>
<circle style="fill:#EF403C;" cx="255.653" cy="255.997" r="159.266"/>
<polygon style="fill:#F2F2F2;" points="255.63,107.451 308.756,184.986 398.914,211.554 341.477,281.882 344.07,375.837 
	255.63,348.495 167.075,379.995 169.668,286.041 112.344,211.554 202.502,184.986 "/>
<path style="opacity:0.2;enable-background:new    ;" d="M406.187,48.86c30.511,42.105,48.512,93.866,48.512,149.84
	c0,141.193-114.459,255.652-255.653,255.652c-55.973,0-107.735-18.002-149.84-48.512c46.453,64.105,121.92,105.813,207.14,105.813
	C397.541,511.652,512,397.193,512,256C512,170.78,470.292,95.314,406.187,48.86z"/>
<g>
</g>
<g>
</g>
<g>
</g>
<g>
</g>
<g>
</g>
<g>
</g>
<g>
</g>
<g>
</g>
<g>
</g>
<g>
</g>
<g>
</g>
<g>
</g>
<g>
</g>
<g>
</g>
<g>
</g>
</svg>
