<svg height="511pt" viewBox="0 -34 511.99979 511" width="511pt" xmlns="http://www.w3.org/2000/svg"><path d="m29.398438 243.398438c-104.679688-189.75 93.707031-325.507813 226.597656-184.816407 177.007812-187.390625 470.210937 115.648438 8.695312 383.496094-5.425781 3.144531-11.960937 3.144531-17.386718 0-4.410157-2.554687-8.746094-5.117187-13.011719-7.683594l-81.65625-110.175781zm0 0" fill="#80c0e4"/><path d="m248.355469 442.640625c1.421875.699219 2.9375 1.207031 4.492187 1.496094 1.136719.210937 2.285156.308593 3.433594.292969-9.574219-5.890626-18.796875-11.792969-27.671875-17.703126l5.683594 7.667969c2.132812 1.285157 4.28125 2.566407 6.453125 3.847657 2.167968 1.28125 7.253906 4.222656 7.609375 4.398437zm0 0" fill="#5ba0d3"/><path d="m376.5625 295.90625c-16.90625 16.957031-82.054688 80.191406-142.269531 138.488281-107.179688-64.34375-171.484375-130.421875-204.894531-190.996093 51.582031-52.375 125.992187-127.753907 147.390624-148.78125 18.519532-18.386719 46.171876-20.570313 61.738282-4.882813 6.796875 6.863281 10.175781 16 10.257812 25.652344 1.105469-1.320313 2.269532-2.605469 3.515625-3.832031 18.53125-18.390626 46.160157-20.574219 61.738281-4.894532 11.484376 11.582032 13.175782 29.660156 5.832032 45.730469 16.121094-7.222656 34.191406-5.398437 45.6875 6.179687 15.566406 15.691407 13.164062 43.3125-5.359375 61.699219-1.253907 1.238281-2.53125 2.390625-3.863281 3.480469 9.65625.15625 18.773437 3.605469 25.582031 10.46875 15.566406 15.691406 13.164062 43.308594-5.355469 61.6875zm0 0" fill="#e9e9e9"/><path d="m195.167969 14.152344c-31.59375-14.28125-67.863281-18.03125-101.210938-7.683594-23.851562 7.398438-45.617187 21.710938-61.773437 40.964844-27.597656 32.867187-36.546875 77.792968-30.011719 119.585937.058594.378907.125.761719.1875 1.140625 4.292969 26.4375 14.136719 51.847656 27.039063 75.238282l35.308593 23.15625c-1.523437-2.578126-2.992187-5.144532-4.402343-7.703126-87.132813-157.945312 35.710937-278.46875 155.984374-233.300781-6.769531-4.273437-13.828124-8.101562-21.121093-11.398437zm0 0" fill="#5ba0d3"/><g fill="#e1738c"><path d="m287.1875 130.488281c-7.851562-7.910156-22.753906-5.847656-33.285156 4.605469s-12.707032 25.335938-4.859375 33.246094c7.851562 7.910156 22.753906 5.851562 33.285156-4.601563 10.535156-10.453125 12.710937-25.339843 4.859375-33.25zm0 0"/><path d="m218.949219 116.914062c-7.847657-7.910156-22.75-5.851562-33.285157 4.601563-10.53125 10.453125-12.707031 25.339844-4.859374 33.25 7.851562 7.910156 22.753906 5.847656 33.285156-4.605469 10.535156-10.453125 12.710937-25.335937 4.859375-33.246094zm0 0"/><path d="m338.707031 182.398438c-7.851562-7.910157-22.753906-5.847657-33.285156 4.605468-10.535156 10.453125-12.710937 25.339844-4.859375 33.25 7.847656 7.910156 22.75 5.847656 33.285156-4.605468 10.53125-10.453126 12.707032-25.339844 4.859375-33.25zm0 0"/><path d="m354.804688 253.867188c-7.851563-7.910157-22.753907-5.847657-33.285157 4.605468-10.535156 10.453125-12.707031 25.339844-4.859375 33.25 7.851563 7.910156 22.753906 5.847656 33.285156-4.605468 10.535157-10.453126 12.710938-25.339844 4.859376-33.25zm0 0"/><path d="m279.394531 271.078125c-18.636719-18.777344.710938-36.117187-20.820312-57.8125-21.53125-21.691406-39.015625-2.476563-57.652344-21.253906-14.511719-14.625-55.121094-6.847657-64.039063 28.492187-8.917968 35.339844 27.75 41.695313 49.898438 64.015625 22.148438 22.316407 28.230469 59.03125 63.636719 50.382813 35.40625-8.648438 43.488281-49.199219 28.976562-63.824219zm0 0"/></g><path d="m236.710938 432.054688c-90.253907-58.660157-146.070313-118.199219-176.40625-173.203126-5.929688-10.746093-10.875-21.316406-14.925782-31.671874-5.503906 5.582031-10.855468 11.015624-15.980468 16.21875 12.007812 21.769531 28.003906 44.25 48.546874 67.101562 1.785157 1.988281 3.605469 3.980469 5.460938 5.972656 10.203125 10.957032 21.460938 21.996094 33.828125 33.078125 1.125 1.007813 2.257813 2.015625 3.398437 3.023438 22.855469 20.164062 49.40625 40.453125 80.011719 60.652343 1.53125 1.011719 3.070313 2.019532 4.621094 3.03125 9.304687 6.054688 18.976563 12.101563 29.027344 18.136719.804687-.78125 1.609375-1.558593 2.417969-2.339843zm0 0" fill="#d3d2d8"/></svg>