<svg id="Layer_1" enable-background="new 0 0 512 512" height="512" viewBox="0 0 512 512" width="512" xmlns="http://www.w3.org/2000/svg"><g><path d="m173.167 159.083v193.833h331.333v-193.833c-18.369 0-312.924 0-331.333 0z" fill="#faed8a"/><path d="m7.5 159.083h165.667v193.833h-165.667z" fill="#faed8a"/><path d="m438.481 324.114h-30.193v-11.064c0-31.373 11.434-60.987 32.333-84.084v-10.888h-30.403v11.105h-30.193v-41.298h90.79v53.361l-4.422 4.422c-17.998 17.998-27.911 41.928-27.911 67.381v11.065z" fill="#ea5172"/><path d="m266.481 324.114h-30.193v-11.064c0-31.373 11.434-60.987 32.333-84.084v-10.888h-30.403v11.105h-30.193v-41.298h90.79v53.361l-4.422 4.422c-17.998 17.998-27.911 41.928-27.911 67.381v11.065z" fill="#ea5172"/><path d="m103.481 324.114h-30.194v-11.064c0-31.373 11.434-60.987 32.333-84.084v-10.888h-30.403v11.105h-30.194v-41.298h90.79v53.361l-4.422 4.422c-17.998 17.998-27.911 41.928-27.911 67.381v11.065z" fill="#ea5172"/><path d="m7.5 159.083h20v193.833h-20z" fill="#e8ab4c"/><g fill="#b3387f"><path d="m380.023 187.886h20v41.298h-20z"/><path d="m460.62 228.967v-10.888h-20v10.888c-20.898 23.097-32.333 52.711-32.333 84.083v11.064h20v-11.064c0-31.372 11.435-60.986 32.333-84.083z"/><path d="m208.023 187.886h20v41.298h-20z"/><path d="m288.62 228.967v-10.888h-20v10.888c-20.898 23.097-32.333 52.711-32.333 84.083v11.064h20v-11.064c0-31.372 11.435-60.986 32.333-84.083z"/><path d="m125.62 228.967v-10.888h-20v10.888c-20.898 23.097-32.333 52.711-32.333 84.083v11.064h20v-11.064c0-31.372 11.435-60.986 32.333-84.083z"/><path d="m45.023 187.886h20v41.298h-20z"/></g><g><g><path d="m164.5 248.491h15v15h-15z" fill="#fff"/></g><g><path d="m332.5 248.491h15v15h-15z" fill="#fff"/></g></g><g><path d="m400.787 313.051v18.563h45.193v-18.563c0-23.45 9.132-45.497 25.715-62.078l6.618-6.619v-63.968h-105.79v56.299h45.193v-11.105h15.403v.546c-20.87 24.11-32.332 54.862-32.332 86.925zm1.93-102.472v11.105h-15.193v-26.299h75.79v42.755l-2.225 2.225c-19.416 19.415-30.108 45.229-30.108 72.686v3.563h-15.193v-3.563c0-29.315 10.794-57.391 30.395-79.052l1.938-2.143v-21.277z"/><path d="m228.787 313.051v18.563h45.193v-18.563c0-23.45 9.132-45.497 25.715-62.078l6.618-6.619v-63.968h-105.79v56.299h45.193v-11.105h15.404v.546c-20.871 24.11-32.333 54.862-32.333 86.925zm1.929-102.472v11.105h-15.193v-26.299h75.791v42.755l-2.225 2.225c-19.416 19.415-30.108 45.229-30.108 72.686v3.563h-15.193v-3.563c0-29.315 10.794-57.391 30.395-79.052l1.938-2.143v-21.277z"/><path d="m65.787 313.051v18.563h45.193v-18.563c0-23.45 9.132-45.497 25.715-62.079l6.618-6.618v-63.968h-105.79v56.299h45.193v-11.105h15.404v.546c-20.871 24.11-32.333 54.862-32.333 86.925zm1.929-102.472v11.105h-15.193v-26.299h75.79v42.755l-2.225 2.225c-19.416 19.415-30.108 45.229-30.108 72.686v3.563h-15.193v-3.563c0-29.315 10.794-57.391 30.395-79.052l1.938-2.143v-21.277z"/><path d="m0 151.58v97.72h15v-82.72h149.5v51.837h15v-51.837h153v51.837h15v-51.837h149.5v178.84h-26.19v15h41.19v-208.84z"/><path d="m347.5 293.583h-15v51.837h-153v-51.837h-15v51.837h-149.5v-81.12h-15v96.12h455.81v-15h-108.31z"/></g></g></svg>